PathFileType	4	(X/Y/Z)	72_2_45_p0_0-798.trc
DataRate	CameraRate	NumFrames	NumMarkers	Units	OrigDataRate	OrigDataStartFrame	OrigNumFrames
60.0	60.0	7	27	m	60.0	99	799
Frame#	Time	RHip			RKnee			RAnkle			RBigToe			RSmallToe			RHeel			LHip			LKnee			LAnkle			LBigToe			LSmallToe			LHeel			Neck			Head			Nose			RShoulder			RElbow			RWrist			RThumb			RIndex			RPinky			LShoulder			LElbow			LWrist			LThumb			LIndex			LPinky			
		X1	Y1	Z1	X2	Y2	Z2	X3	Y3	Z3	X4	Y4	Z4	X5	Y5	Z5	X6	Y6	Z6	X7	Y7	Z7	X8	Y8	Z8	X9	Y9	Z9	X10	Y10	Z10	X11	Y11	Z11	X12	Y12	Z12	X13	Y13	Z13	X14	Y14	Z14	X15	Y15	Z15	X16	Y16	Z16	X17	Y17	Z17	X18	Y18	Z18	X19	Y19	Z19	X20	Y20	Z20	X21	Y21	Z21	X22	Y22	Z22	X23	Y23	Z23	X24	Y24	Z24	X25	Y25	Z25	X26	Y26	Z26	X27	Y27	Z27	
99	1.65	0.2351351985846447	0.46138875001452817	0.6404532912351503	0.24151339082991982	0.5011010944983824	1.0571437200471965	0.21671278836686078	0.5780081816793644	1.4683892120315514	0.18908553012998708	0.38605203541783867	1.4598248018153317	0.23618926936904672	0.42955511079394965	1.4749416971410616	0.19862886180708145	0.591995288971449	1.4981579129891311	0.03263810795996208	0.5250211085727967	0.651748047476279	0.03687325986216713	0.5412370041473755	1.053505254962553	0.03964777302039901	0.5884946695302352	1.4482439705532621	-0.003333276647643524	0.45999940034592157	1.4658208775445376	-0.04178251990399692	0.5090742933022993	1.4622566036930331	0.05694454077746952	0.6450773119571952	1.5197475198645656	0.13050408098204885	0.49498376869643645	0.05358866404971772	0.1124357765927849	0.4645273404766086	-0.22064146390301478	0.09815609927992197	0.3629849975657043	-0.08779027194066473	0.2890384446889342	0.4322901699341375	0.1313752614049313	0.2999254829648466	0.4132789522250944	0.39493034013603734	0.1510469592769443	0.3433753758076052	0.58771056478526	0.05451959068477143	0.3381013875605615	0.6268030850310533	0.0684347437616143	0.3891534003450979	0.6861576388440856	0.07158065364129117	0.3876579768139562	0.6916448086568552	-0.03234342593043236	0.5462145574827332	0.12588761517826147	-0.061056535365540475	0.5161096265909426	0.39289398851559076	0.047765409309870284	0.34570671770728656	0.577486935447192	0.13117822853250238	0.32024603775912797	0.6296376322680836	0.1273031996480463	0.3216882828389069	0.6783300453331774	0.09707786192567099	0.3602238023976723	0.689225390127754
100	1.6666666666666667	0.23521993498968535	0.46123955598312394	0.6399682180214451	0.24054016588889146	0.499941721891328	1.0521915292822095	0.21670789804005483	0.5779488645594636	1.4681324021097126	0.18712594996114384	0.4002614276221296	1.4684731862189555	0.23493551663847723	0.4280437755081562	1.4701873666924732	0.19748490925142584	0.5903373755023864	1.4930585353184105	0.032759720551213456	0.5250841643543379	0.6518203469224655	0.03616692138841912	0.5401818564926978	1.0482978637836262	0.03959791464958627	0.5903193469268311	1.444474911809652	0.0015704745589839326	0.46199317507798293	1.4673866485508305	-0.03857409313789756	0.49449414611444553	1.4534095575281198	0.05677961729134667	0.644958746605111	1.5197974701264747	0.12839286455720644	0.5077849489595829	0.055084861827533145	0.1083503168083579	0.4643965197440262	-0.2203224835578568	0.09211807430580968	0.3756257375211094	-0.08623406917249421	0.28900260643700965	0.432278475392313	0.13136196802581965	0.30089520078698867	0.4003976919458059	0.395201523732501	0.15584410542737262	0.3546848711960243	0.5875471165406527	0.057770916531087305	0.31193240178149867	0.6286699150336766	0.06679039210607868	0.3755844718626896	0.6852620404918116	0.0757229438245379	0.39854911507882235	0.6953254366200191	-0.02826369931009251	0.5578784964543153	0.1276852517014149	-0.0610162743488607	0.5152958344719667	0.39624906576885804	0.04778249964844645	0.3458060852991757	0.5775095425917717	0.13258281849190967	0.30779111257976044	0.6294440255799326	0.13188791497917876	0.3228238044330194	0.6790174269490504	0.09636545140765136	0.36006478803473835	0.6929552977050252
101	1.6833333333333333	0.23520973220197464	0.4612586420146428	0.6398445560465358	0.2405464782284741	0.4999031803975028	1.0521552836744676	0.2167392670573586	0.578033899648962	1.4683223583709946	0.18707106116835415	0.40015209092612036	1.468489798116709	0.23608164770403994	0.42949185111000515	1.4749825152036669	0.198644224427723	0.5920545698936202	1.4981605771015902	0.032691887654125305	0.525109033471895	0.6517561729089655	0.03618647071026681	0.5401715099122427	1.0482907092841292	0.039537573760403386	0.5902190287309786	1.4446302713731891	-0.00045735816007933243	0.44520412558262273	1.4570945571635536	-0.03866554806526683	0.49435780110837974	1.4535253100944572	0.051889405965360486	0.6337847434277499	1.5076781863046362	0.12837599385698184	0.5079161432641351	0.055136096816386704	0.10814301528965706	0.4650087220974216	-0.22003657565383436	0.08972406929933895	0.3880444355410554	-0.08550665507938698	0.28892448739654836	0.43223294412854624	0.13131632380994454	0.30126839041893594	0.4006394491491394	0.3918930140211592	0.1558424138707539	0.35470848190772925	0.5875862422950088	0.0527067287510923	0.3006356224940375	0.6239146097492999	0.06421679458679648	0.3877070842074094	0.6895705737050611	0.0759318795238873	0.39967914504456187	0.6959701417807297	-0.028234185479119107	0.5580288227602266	0.12767970866151018	-0.06102391207794076	0.5154143047883742	0.3961635542247249	0.04781377659894211	0.34615424365469444	0.5775600375975823	0.12685696371083513	0.31212001803983525	0.6267238200335092	0.13105566367812985	0.3213247773172954	0.6749945499098154	0.0962875129611908	0.3600183255299999	0.6929468932131002
102	1.7	0.23520611735598093	0.4611311809379151	0.6394723443270576	0.24046479700518875	0.49967399615521846	1.0522959958274254	0.2167165875383305	0.5779499949883159	1.4682345682061506	0.18705535392457504	0.40008850119523776	1.468470521714608	0.2361487284160514	0.4297048738940561	1.4750266392693603	0.19930765066822437	0.5909669359948924	1.4925474171834463	0.03274557183097235	0.5251862963008275	0.6517953445728314	0.035371378722249026	0.5389690776195389	1.0432770870587904	0.039624384991918074	0.5904742543387959	1.444505213728666	0.001409090830050311	0.46195410338311754	1.4673444056897365	-0.04158088271956446	0.5094001951023283	1.4622622421841318	0.05673414174307949	0.6470301021045421	1.515648820856824	0.12837515438302585	0.5080803727721478	0.05527142602578662	0.10796123904284043	0.4651375650523368	-0.21990902531981024	0.08337530148939606	0.4003068224562633	-0.08754879194998633	0.2889039461658804	0.43224753594397597	0.1313306224542582	0.3053438017522	0.40038832568625443	0.3917676568350212	0.14680826462770144	0.3435575822542002	0.5836963984302634	0.05336269917569109	0.302122681100259	0.6297976447847093	0.06695786872092561	0.37561613102050173	0.685754732331913	0.07829428038197966	0.3862951351250507	0.6952556104060753	-0.02824288856116384	0.5580909870776404	0.1277638451345324	-0.06094795971289497	0.5156484329295686	0.39636398178259646	0.0477589435994164	0.3460444578511613	0.5775972788428753	0.13273394088266788	0.3080780852943384	0.6299033585396647	0.1318815399475631	0.32253745510330584	0.6788222574101896	0.09616666221237169	0.3598682223928482	0.6930519032585988
103	1.7166666666666666	0.23525444086125738	0.461173755631309	0.63954766946582	0.24148249419537474	0.5009706576706473	1.0574343491438039	0.21672316439354927	0.5779981124874874	1.4683762764916253	0.189043511162299	0.38601441125102776	1.4599454192621781	0.23603749630017376	0.4294724457482379	1.4750501212485128	0.1986723817401849	0.5920386661699362	1.4982204911909462	0.03283993666543807	0.5244597697242275	0.6549669980153291	0.03626314700316031	0.5403168782648693	1.0483354337499846	0.0397273505356994	0.588713148971909	1.4482130371087187	0.0014419622956995876	0.46190783739325	1.4673292876628774	-0.03865995884937119	0.4946021520737273	1.4535211371112216	0.05684606584508817	0.6451162440665783	1.5199558110257305	0.12834653992507633	0.5082396579543609	0.055369801673733066	0.10333625342199869	0.45441977706576914	-0.22028891134365525	0.08310840558065852	0.399683068318608	-0.08464047655706934	0.2885485448926817	0.43246668939891547	0.13108191277713133	0.3049468090226531	0.40014110091079047	0.39506055248796074	0.14676570174153053	0.34348845567340447	0.5835819383940652	0.0558850764274988	0.2905299202046021	0.622684748073701	0.06703284624764169	0.3753473998632759	0.6858092759309657	0.07596831765541939	0.40013986321781164	0.6961485412604811	-0.02826969507630614	0.5581619818284708	0.12791498290345824	-0.0609214227935417	0.5157490379621846	0.3963764628734778	0.04765872775515252	0.3460644742508262	0.5776683410954867	0.1328070488922656	0.3082730535752672	0.6299913145591353	0.1318086024079388	0.3224744575905299	0.67894844865181	0.09888248270590139	0.3469156456503367	0.6889950136093429
104	1.7333333333333334	0.23530613013700846	0.4613373864576123	0.6392818959502334	0.24045534469167085	0.4997163350229321	1.0527442856636269	0.21669372722335345	0.57789734437918	1.4683098238115107	0.18901372102922162	0.3859560583034547	1.4599366937044809	0.2360561959576036	0.42953428072318534	1.4750534512827302	0.1985623812016124	0.5917299938713202	1.4980182788173568	0.032858009463761224	0.5245682672223194	0.6549866943579156	0.03622393207131294	0.5401759365746119	1.0483106978649661	0.0396135969160015	0.5903002504441306	1.4445620948451279	-0.003289279016907339	0.45970914537977053	1.4656391212449196	-0.041617775525014104	0.5092264920153904	1.4622559062874347	0.05669404645447859	0.6468379088265552	1.515689070040502	0.12840815241598277	0.5083404005721278	0.05536633547898706	0.10327514578046407	0.45420147558024915	-0.22029631358495502	0.08129613196450018	0.37844905371193593	-0.0823600085444811	0.28886900780734276	0.4322572409458184	0.13129955931069753	0.3052613763069353	0.40019381689588496	0.3915604225438534	0.1467409369403899	0.34354728879499946	0.5835524979211926	0.05513891768409548	0.2892151072594836	0.6301433624809679	0.07090646194368787	0.3747242505788333	0.6895649178037359	0.07858470837818733	0.387607479988101	0.6921120173358688	-0.02827899135411117	0.5583751551550536	0.12808493593211526	-0.060959850708932596	0.5157474139009036	0.39634648704573294	0.04774152822262971	0.346119834450445	0.577624949770249	0.13212325263515295	0.3220113055698382	0.6379159313857172	0.13187862246957738	0.3225041898136448	0.6789305696738032	0.10226284619247626	0.347301686364273	0.6893119255208421
105	1.75	0.23530297481369228	0.4612916754808642	0.6394103449775266	0.24041958303021757	0.49962713960953775	1.0528402403438333	0.21670815306032032	0.5778851554971852	1.4682679387944504	0.18902009579993706	0.38607396286470524	1.4599602335535176	0.23603842908494907	0.42940991621596036	1.4749991040039	0.19852600340682872	0.5915974766014832	1.4979285369499156	0.032889366285236324	0.5244703901546807	0.6550009053098798	0.03613251499514006	0.539996726019466	1.048379384965743	0.03961410267279169	0.5901518464656093	1.4444410312950846	-0.0032779357626145094	0.45961949867817936	1.4655888915453235	-0.038675086713543076	0.4944820538197082	1.4535009714096176	0.05190725254044653	0.6334022266470216	1.5074757232622016	0.12845454730819347	0.5084306453294162	0.05553156589155503	0.10290663350133472	0.4538095951734016	-0.22015518876467288	0.07729970709130685	0.378448838842222	-0.07565975101131998	0.2888418580543758	0.4321325445738229	0.13128111408298648	0.30524464885657665	0.4001167509051317	0.3915368249724229	0.1467020692488656	0.34359890719405095	0.5835082671618478	0.053193180063815196	0.3027785449626677	0.6359030847448088	0.07100162548095657	0.37511886800020944	0.6899674316734417	0.07838951167073153	0.3878722700199353	0.6918854426695512	-0.028200986231430133	0.5585336572796871	0.12802803772919422	-0.06093799741181718	0.5157009167416692	0.39625642081546864	0.047833915213652614	0.3463150326166014	0.5776843651455768	0.12776122466231946	0.31338334696326364	0.6389095377994823	0.13181841938679523	0.322476284158595	0.6788795069806739	0.09955988144268361	0.35985131819520577	0.6963772307788711
